<svg class="icon" viewBox="0 0 1024 1024" xmlns="http://www.w3.org/2000/svg" width="48" height="48"><defs><style/></defs><path d="M677.356 204.8v-61.44c0-33.915-29.615-61.44-66.15-61.44H412.712c-36.577 0-66.191 27.525-66.191 61.44v61.44H81.879v61.44h99.246v614.4c0 33.956 29.655 61.44 66.15 61.44h529.327c36.577 0 66.191-27.484 66.191-61.44v-614.4h99.246V204.8H677.356zm-264.643-61.44h198.492v61.44H412.713v-61.44zm363.889 737.28H247.276v-614.4h529.326v614.4zM346.522 358.4h66.191v430.08h-66.191V358.4zm132.341 0h66.15v430.08h-66.15V358.4zm132.342 0h66.15v430.08h-66.15V358.4zm0 0" fill="#333"/></svg>