<?xml version="1.0" standalone="no"?><!DOCTYPE svg PUBLIC "-//W3C//DTD SVG 1.1//EN" "http://www.w3.org/Graphics/SVG/1.1/DTD/svg11.dtd"><svg t="1523588022957" class="icon" style="" viewBox="0 0 1024 1024" version="1.1" xmlns="http://www.w3.org/2000/svg" p-id="9253" xmlns:xlink="http://www.w3.org/1999/xlink" width="48" height="48"><defs><style type="text/css"></style></defs><path d="M677.35552 204.8l0-61.44c0-33.91488-29.61408-61.44-66.1504-61.44l-198.49216 0c-36.57728 0-66.19136 27.52512-66.19136 61.44l0 61.44-264.64256 0 0 61.44 99.24608 0 0 614.4c0 33.95584 29.65504 61.44 66.1504 61.44l529.32608 0c36.57728 0 66.19136-27.48416 66.19136-61.44l0-614.4 99.24608 0 0-61.44L677.35552 204.8 677.35552 204.8zM412.71296 143.36l198.49216 0 0 61.44-198.49216 0L412.71296 143.36 412.71296 143.36zM776.6016 880.64 247.27552 880.64l0-614.4 529.32608 0L776.6016 880.64 776.6016 880.64zM346.5216 358.4l66.19136 0 0 430.08-66.19136 0L346.5216 358.4 346.5216 358.4zM478.86336 358.4l66.1504 0 0 430.08-66.1504 0L478.86336 358.4 478.86336 358.4zM611.20512 358.4l66.1504 0 0 430.08-66.1504 0L611.20512 358.4 611.20512 358.4zM611.20512 358.4" p-id="9254" fill="#333333"></path></svg>